<?xml version="1.0" encoding="UTF-8"?>
<svg version="1.1" viewBox="0 0 1600 1600" width="1280" height="1280" xmlns="http://www.w3.org/2000/svg">
<path transform="translate(341 92.6)" d="m0 0c4.32 0.01 8.65-0 13-0.01 8.41-0.02 16.8-0.01 25.2 0h20.5 2.97 5.98c18.6-0.01 37.2 0 55.7 0.01 15.9 0.02 31.8 0.01 47.7 0 18.6-0.02 37.1-0.02 55.6-0.01h5.93 2.95c6.83 0 13.7 0 20.5-0.01 8.32-0.01 16.6 0 25 0.01 4.23 0.01 8.47 0.01 12.7 0 3.89 0 7.77 0 11.6 0.02 1.4 0 2.8 0 4.2-0.01 10.8-0.05 21.2 0.49 29.8 7.58 7.4 7.5 10.2 15.3 10.2 25.6-0.25 8.53-3.46 14.3-9.12 20.5-7.42 6.93-16.7 8.74-26.6 8.75-1.25 0.01-2.5 0.01-3.78 0.01h-4.13c-1.47 0-2.93 0.01-4.4 0.01-4.03 0.01-8.07 0.01-12.1 0.01-4.35 0-8.7 0.01-13 0.02-7.54 0.01-15.1 0.02-22.6 0.02-11.9 0.01-23.9 0.03-35.8 0.05-4.09 0.01-8.18 0.02-12.3 0.03h-3.09c-11.6 0.02-23.3 0.04-34.9 0.06-1.06 0-2.12 0-3.22 0.01-17.2 0.02-34.4 0.04-51.6 0.06-17.7 0.01-35.4 0.04-53 0.08-10.9 0.02-21.8 0.04-32.7 0.04-7.48 0-15 0.02-22.4 0.04-4.3 0.01-8.61 0.02-12.9 0.01-67.3-0.08-130 18.2-181 63.4-2.27 1.99-4.34 3.8-7.06 5.14-2.03 0.79-2.03 0.79-2.66 3.84-1.05 0.84-1.05 0.84-2.12 1.69-3.04 2.44-5.36 5.05-7.88 8.01-1.37 1.58-2.77 3.12-4.21 4.63-12.6 13.3-22.6 28.8-31.8 44.7-0.39 0.68-0.78 1.35-1.18 2.04-31.6 55-40.5 125-24.7 186 10.7 39.2 28.9 75.1 56 106 1.94 2.2 3.68 4.2 4.98 6.84 0.8 2.04 0.8 2.04 3.85 2.67 1.54 1.6 1.54 1.6 3.07 3.5 2.11 2.68 2.11 2.68 4.93 4.5v2c0.84 0.36 0.84 0.36 1.7 0.72 2.84 1.58 4.88 3.54 7.24 5.78 35.2 32.6 82.1 53.8 129 61.8 0.88 0.15 1.76 0.3 2.67 0.46 18.5 2.92 36.9 3.61 55.6 3.69 2.46 0.02 4.93 0.04 7.39 0.06 7.31 0.05 14.6 0.09 21.9 0.12 2.07 0 4.14 0.01 6.2 0.02 12.9 0.06 25.8 0.11 38.7 0.14 2.97 0 5.94 0.01 8.9 0.02h2.24c12 0.03 24 0.11 36 0.2 12.4 0.09 24.7 0.15 37 0.16 6.92 0.01 13.8 0.03 20.8 0.11 6.49 0.07 13 0.08 19.5 0.05 2.38 0 4.76 0.02 7.14 0.06 12.2 0.77 12.2 0.77 22.8-3.69 1.83-2.84 2.95-5.5 4.14-8.65 14.7-20.9 36.8-34.8 61.9-39.5 19.6-2.86 39.6-0.71 57.1 8.54 0.92 0.45 1.83 0.91 2.77 1.37 6.76 3.48 12.4 7.73 18.2 12.6 0.61 0.46 1.21 0.92 1.83 1.39 5.09 3.96 8.78 9 12.6 14.1 0.43 0.55 0.85 1.1 1.3 1.66 1.22 1.85 1.22 1.85 2.03 4.13 1.33 3.13 2.47 4.64 5.19 6.72 6.87 1.87 14.4 1.18 21.5 1.1 2.26 0 4.52 0.01 6.78 0.03 6.22 0.02 12.4-0.01 18.7-0.05 6.01-0.04 12-0.02 18-0.01 12.3 0.02 24.6-0.01 37-0.06 12.2-0.04 24.4-0.07 36.6-0.08h2.3 11.6c27.4-0.01 54.7-0.06 82.1-0.14 26.5-0.07 53-0.12 79.5-0.14h2.48c6.56-0.01 13.1-0.01 19.7-0.02 28.4-0.02 56.8-0.06 85.2-0.11 5.33 0 10.7-0.01 16-0.02 16.1-0.02 32.1-0.05 48.2-0.1 6.64-0.01 13.3-0.03 19.9-0.04 6.09-0.01 12.2-0.02 18.3-0.05 2.18 0 4.37-0.01 6.56-0.01 74-0.02 141-23 195-74.3 0.76-0.71 0.76-0.71 1.52-1.43 7.48-7.1 14-14.6 20.2-22.9 1.23-1.62 2.51-3.2 3.79-4.78 32.5-40.4 49.6-94.6 51.5-146 0.06-1.24 0.11-2.48 0.16-3.76 1.14-40.2-8.52-80.3-26.2-116-0.39-0.8-0.77-1.59-1.18-2.41-10.4-21.2-23.8-40.3-39.8-57.6-1.54-1.73-3.08-3.45-4.62-5.19-6.17-6.83-12.5-12.8-19.7-18.6-2.26-1.84-4.41-3.73-6.56-5.69-5.33-4.69-11.2-8.59-17.1-12.5-0.58-0.39-1.17-0.78-1.78-1.18-49.3-32.5-102-44.3-160-44.2-4.33 0-8.66-0.01-13-0.02-7.48-0.02-15-0.02-22.4-0.02-10.8 0-21.6-0.01-32.4-0.03-17.6-0.04-35.1-0.06-52.7-0.07h-3.18c-4.24-0.01-8.49-0.01-12.7-0.01-11.7-0.01-23.4-0.02-35.2-0.03-1.05-0.01-2.1-0.01-3.18-0.01-17.5-0.02-35.1-0.04-52.6-0.07-10.8-0.02-21.6-0.03-32.4-0.03-7.38 0-14.8-0.01-22.2-0.03-4.25 0-8.51-0.01-12.8 0-3.9 0-7.79 0-11.7-0.02-1.41 0-2.82 0-4.22 0.01-11.6 0.03-21.2-0.48-30.4-8.27-6.78-7.28-9.59-14.8-9.55-24.8 0.31-8.47 3.65-15.9 9.87-21.7 6.74-5.08 14.2-7.62 22.6-7.63 1.21 0 2.43-0.01 3.69-0.01h4.05c1.44 0 2.88 0 4.31-0.01 3.95-0.01 7.91-0.01 11.9-0.01 4.26 0 8.52-0.01 12.8-0.01 9.33-0.02 18.7-0.02 28-0.03 5.84 0 11.7-0.01 17.5-0.01 16.2-0.01 32.4-0.02 48.6-0.03h3.14 3.15 6.32 3.17c16.8 0 33.7-0.02 50.6-0.04 17.4-0.03 34.7-0.04 52-0.04 9.73 0 19.4-0.01 29.2-0.03 8.3-0.01 16.6-0.02 24.9-0.01 4.22 0.01 8.44 0.01 12.7-0.01 16.4-0.05 32.7 0.25 49.1 1.76 1.01 0.09 1.01 0.09 2.03 0.18 67.2 6.35 135 35 184 81.6 1.84 1.84 1.84 1.84 3.96 2.79v2c0.6 0.27 1.19 0.54 1.81 0.82 2.17 1.17 3.59 2.32 5.33 4.05 0.86 0.86 0.86 0.86 1.74 1.73 0.6 0.61 1.19 1.21 1.81 1.84 0.93 0.94 0.93 0.94 1.89 1.9 4.43 4.52 8.5 9.2 12.4 14.2 1.83 2.28 3.75 4.41 5.74 6.54 40.7 45.4 62 107 70.2 166 0.19 1.27 0.38 2.54 0.57 3.85 1.39 10.1 1.84 20 1.81 30.2v2.49c-0.06 16.7-1.57 33-4.38 49.5-0.11 0.68-0.22 1.36-0.34 2.06-6.14 36.3-17.9 70.7-35.7 103-0.52 0.97-0.52 0.97-1.06 1.95-11.8 21.6-26.5 41.9-43.6 59.6-1.4 1.47-2.76 2.97-4.11 4.48-46 51.6-112 83.6-180 95.2-0.87 0.15-1.74 0.3-2.64 0.46-17.8 2.87-35.6 3.59-53.7 3.57-2.31 0.01-4.61 0.01-6.91 0.02-6.27 0.01-12.5 0.02-18.8 0.02-6.08 0-12.2 0.01-18.2 0.03-12.4 0.02-24.9 0.04-37.3 0.05-12.3 0.01-24.6 0.02-36.9 0.04-0.76 0.01-1.53 0.01-2.32 0.01-3.89 0-7.79 0.01-11.7 0.02-27.5 0.04-55 0.08-82.6 0.11-26.7 0.03-53.5 0.06-80.2 0.1-0.82 0.01-1.65 0.01-2.5 0.01-8.28 0.01-16.6 0.02-24.8 0.04-16.9 0.02-33.8 0.05-50.6 0.07h-2.35c-51.7 0.08-103 0.14-155 0.2v74c5.94-1.48 5.94-1.48 12-3 22.8-4.22 48.4 0.06 67.7 13.2 3.52 2.52 6.93 5.16 10.3 7.85 0.42-0.34 0.83-0.68 1.26-1.03 21.5-16.9 45.8-23.3 73-20.8 23.9 3.07 45.4 17 60.3 35.5 3.42 4.44 6.06 9.26 8.46 14.3 4.23-0.71 8.09-2.02 12.1-3.44 24.4-8.28 51.8-7.31 75 4.13 23.7 12.2 41.4 31.7 49.8 57.2 1.49 5.3 2.62 10.5 3.24 16 0.08 0.73 0.17 1.46 0.25 2.21 0.91 8.57 0.91 17.1 0.89 25.7 0.01 1.81 0.01 3.63 0.01 5.44 0.01 4.88 0.01 9.76 0 14.6 0 5.15 0 10.3 0.01 15.5 0 8.67-0.01 17.3-0.02 26-0.01 9.94 0 19.9 0.01 29.8 0.01 8.6 0.01 17.2 0 25.8 0 5.1 0 10.2 0.01 15.3 0.03 32.6-0.92 64.5-6.28 96.8-0.25 1.58-0.25 1.58-0.51 3.18-6.1 37.4-18.6 73.6-34.5 108-0.39 0.86-0.79 1.72-1.2 2.6-9.89 21.1-22 41.6-35.8 60.4-0.73 1.01-0.73 1.01-1.48 2.03-5.68 7.76-11.5 15.4-17.7 22.7-0.6 0.74-1.21 1.47-1.84 2.23-0.55 0.6-1.11 1.19-1.68 1.8-3.82 6.4-2.47 16.2-2.49 23.4-0.03 2.6-0.05 5.2-0.07 7.79-0.04 4.07-0.07 8.13-0.08 12.2-0.01 3.94-0.06 7.89-0.1 11.8v3.62c-0.24 17.2-6.1 30.7-17.7 43.2-16.3 15.5-37.6 16.3-59 16.3h-4.12c-3.73 0.01-7.46 0.01-11.2 0.01-4.04 0-8.08 0-12.1 0.01-7.9 0.01-15.8 0.01-23.7 0.01h-19.3c-18.2 0.01-36.5 0.02-54.8 0.02h-2.98-2.98c-15.9 0-31.9 0.01-47.8 0.02-16.4 0.02-32.8 0.02-49.2 0.02-9.2 0-18.4 0-27.6 0.01-7.83 0.01-15.6 0.02-23.5 0.01h-12c-53.1 0.11-53.1 0.11-72.2-17.5-14.2-14.6-17-31.8-16.8-51.3 0.03-2.92 0.05-5.84 0.05-8.76 0.02-8.29 0.05-16.6 0.16-24.9 0.07-5.1 0.08-10.2 0.07-15.3 0-1.93 0.02-3.85 0.06-5.78 0.29-13.8-1.98-21.4-11.2-31.8-1.16-1.58-2.31-3.16-3.43-4.78-1-1.38-2-2.77-3-4.16-0.55-0.75-1.1-1.51-1.66-2.29-3.89-5.38-7.81-10.7-11.8-16.1-5.21-7.1-10.4-14.2-15.5-21.4-3.26-4.52-6.52-9.03-9.78-13.6-2.7-3.74-5.4-7.47-8.09-11.2-6.13-8.52-12.3-17-18.6-25.4-3.94-5.35-7.85-10.7-11.7-16.1-5.72-7.96-11.5-15.8-17.4-23.7-4.71-6.39-9.37-12.8-14-19.2-1.08-1.51-2.16-3.01-3.24-4.51-0.83-1.15-0.83-1.15-1.67-2.32-3.49-4.82-7.01-9.62-10.6-14.4-2.9-3.92-5.79-7.84-8.66-11.8-0.51-0.7-1.02-1.41-1.55-2.13-6.89-9.52-12.6-19.2-17.4-29.9-0.4-0.85-0.81-1.71-1.23-2.59-10.2-22.9-10-51.4-1.19-74.7 10.4-25.8 29.8-45.5 55.2-56.8 25.3-10.3 54-9.34 79.1 1.13 11.9 5.43 22.9 13.7 32.1 23v-284c-81.6-0.25-81.6-0.25-163-0.48-15.8-0.05-15.8-0.05-23.3-0.08-5.16-0.02-10.3-0.03-15.5-0.04-6.6-0.01-13.2-0.04-19.8-0.07-2.4 0-4.81-0.01-7.22-0.01-18.5-0.02-37.1-0.68-55.3-4.07-0.94-0.17-1.87-0.34-2.84-0.51-28.8-5.4-56.5-13.9-82.8-26.7-0.68-0.32-1.37-0.65-2.08-0.99-29.5-14-58.6-32.8-81.4-56.5-1.66-1.7-1.66-1.7-4.48-3.91-3.06-2.62-5.54-5.4-8.15-8.46-1.84-2.1-3.78-4.03-5.78-5.97-4.45-4.4-8.24-9.19-12.1-14.1-1.1-1.38-1.1-1.38-2.23-2.79-12.2-15.4-22.6-31.9-31.8-49.2-0.34-0.63-0.68-1.27-1.03-1.93-15.7-29.3-25.2-61.4-31-94.1-0.21-1.16-0.42-2.31-0.64-3.51-6.15-34.7-4.76-69.9 1.64-104 0.22-1.21 0.43-2.43 0.65-3.68 7.13-39.9 22.5-79.7 45.4-113 0.39-0.58 0.78-1.17 1.18-1.77 6.52-9.76 13.4-19.2 20.8-28.2 0.47-0.57 0.93-1.14 1.41-1.72 6.98-8.48 14.5-16.4 22.2-24.2 0.86-0.87 1.72-1.74 2.6-2.63 5.95-5.92 12.2-11.3 18.8-16.5 1.28-1.05 2.56-2.1 3.83-3.15 8.39-6.86 17-13.1 26.2-18.8 0.8-0.49 1.59-0.99 2.4-1.5 42.2-26.2 89.3-42.6 139-47.2 0.7-0.06 1.4-0.12 2.12-0.19 16.5-1.46 32.9-1.59 49.4-1.55zm284 601c-5.89 7.47-8.1 14.7-8.11 24.1 0 0.66 0 1.31-0.01 1.98v6.6c0 1.59-0.01 3.18-0.01 4.77-0.01 4.37-0.01 8.74-0.02 13.1 0 4.72-0.01 9.43-0.02 14.2-0.02 8.17-0.03 16.3-0.04 24.5-0.01 11.8-0.03 23.6-0.05 35.5-0.04 19.2-0.08 38.4-0.11 57.6v3.48c-0.03 16.3-0.06 32.6-0.08 48.9v3.48c0 1.15-0.01 2.29-0.01 3.48-0.02 19.1-0.06 38.2-0.1 57.4-0.02 11.8-0.04 23.6-0.05 35.4-0.01 8.08-0.02 16.2-0.04 24.2-0.02 4.66-0.02 9.33-0.02 14 0 4.27-0.01 8.54-0.03 12.8v4.63c0.02 11.9-0.26 22-8.28 31.4-6.4 6.19-13.6 9.05-22.4 9.44-8.52-0.27-15.1-3.37-21.2-9.27-1.33-1.38-1.33-1.38-3.38-1.17-0.49-1.48-0.49-1.48-1-3-1.39-1.41-1.39-1.41-3.18-2.81-4.01-3.4-7.74-7.02-11.4-10.8-0.6-0.6-1.19-1.2-1.81-1.81-2.48-2.51-4.96-5.01-7.44-7.52-9-9.12-9-9.12-18.5-17.7-2.5-2.18-4.72-4.57-7-6.98-7.46-7.65-15.4-12.8-26.2-13.8-12-0.13-20.4 2.28-29.4 10.3-7.86 7.74-11.8 16.8-12.1 27.8 0.68 15.2 8.39 26.3 17.1 38.2 0.55 0.75 1.09 1.49 1.65 2.26 3.49 4.79 7.02 9.56 10.6 14.3 2.96 4 5.92 7.99 8.87 12 0.87 1.18 0.87 1.18 1.75 2.39 4.47 6.06 8.88 12.2 13.3 18.3 5.2 7.21 10.5 14.4 15.8 21.5 4.91 6.64 9.77 13.3 14.6 20 4.41 6.2 8.89 12.4 13.4 18.5 6.25 8.46 12.4 17 18.6 25.5 2.7 3.75 5.41 7.49 8.11 11.2 3.25 4.49 6.49 8.98 9.72 13.5 5.57 7.73 11.2 15.4 16.8 23.1 36.1 48.8 27 51.8 27.9 136h332c0.7-7.61 1.09-14.8 1-22.4-0.01-4.85-0.01-9.7 0-14.6 0.01-1.1 0.01-1.1 0.01-2.23 0.02-4.79 0.06-9.58 0.15-14.4 0.02-1.57 0.03-3.15 0.04-4.73 0.05-11.8 1.49-20.8 10-29.6 4.86-5.15 9.35-10.5 13.8-16.1 0.47-0.58 0.93-1.16 1.41-1.76 49.8-62.7 77.7-137 77.8-217 0.01-2 0.01-4.01 0.02-6.01 0.01-5.41 0.02-10.8 0.02-16.2 0.01-3.39 0.01-6.77 0.02-10.2 0.01-10.6 0.02-21.2 0.02-31.8 0.01-12.2 0.02-24.4 0.05-36.6 0.03-9.46 0.04-18.9 0.04-28.4 0-5.65 0-11.3 0.02-16.9 0.02-5.31 0.02-10.6 0.01-15.9 0-1.94 0-3.88 0.01-5.82 0.07-13.3-0.1-25.3-9.37-35.9-7.66-6.92-17.1-10.8-27.6-10.3-11.7 1.61-19.8 6.11-27.1 15.4-5.25 7.83-5.64 15.4-5.69 24.6-0.02 1.68-0.02 1.68-0.04 3.39-0.05 3.57-0.08 7.14-0.12 10.7-0.04 4.7-0.09 9.39-0.15 14.1-0.01 1.06-0.01 2.12-0.02 3.22-0.14 11-1.25 21.7-9.3 29.9-6.84 5.76-14.7 8.72-23.7 8.34-8.49-1.24-15.8-4.73-21.4-11.4-5.07-8.09-6.14-15-6.15-24.4-0.01-0.94-0.01-1.88-0.02-2.85l-0.03-6.12c-0.01-3.23-0.03-6.47-0.05-9.7-0.06-9.19-0.11-18.4-0.15-27.6-0.02-5.63-0.05-11.2-0.1-16.9-0.01-2.14-0.02-4.28-0.02-6.41-0.01-3-0.03-6.01-0.06-9.01 0-0.87 0.01-1.74 0.01-2.64-0.13-9.54-2.41-18.2-9.18-25.2-7.73-7.26-14.3-8.8-24.8-8.54-7.77 0.8-14.2 4.53-19.4 10.4-5.82 8.33-7.3 16.7-7.27 26.7 0 0.93-0.01 1.86-0.01 2.82-0.01 2.01-0.02 4.02-0.02 6.03 0 3.18-0.02 6.37-0.04 9.56-0.06 9.06-0.09 18.1-0.11 27.2-0.02 5.56-0.05 11.1-0.09 16.7-0.01 2.11-0.01 4.22-0.01 6.33-0.01 2.95-0.02 5.9-0.05 8.86 0.01 0.86 0.01 1.72 0.02 2.6-0.12 9.78-2.62 18.1-9.42 25.3-5.88 5.54-13.4 8.01-21.4 8.44-8.47-0.36-15.8-3.75-21.9-9.59-7.13-7.97-7.96-17.5-7.91-27.8-0.01-1.43-0.01-1.43-0.01-2.88-0.01-2.05-0.01-4.1-0.01-6.15 0-3.25-0.01-6.5-0.03-9.75-0.05-9.24-0.07-18.5-0.08-27.7 0-5.66-0.03-11.3-0.06-17-0.01-2.15-0.01-4.3-0.01-6.45 0.01-3.01-0.01-6.03-0.03-9.04 0.01-0.87 0.01-1.75 0.02-2.65-0.12-9.24-3.28-17-9.6-23.7-7.64-6.95-14.2-8.13-24.4-8.04-7.86 0.62-14.3 4.45-19.6 10.3-8.35 11.4-7.28 25.2-7.27 38.6 0 3.14-0.01 6.28-0.03 9.42-0.05 8.93-0.07 17.8-0.08 26.8 0 5.48-0.03 11-0.06 16.4-0.01 2.08-0.01 4.16-0.01 6.23 0.01 2.91-0.01 5.82-0.03 8.73 0.01 1.27 0.01 1.27 0.02 2.56-0.09 7.06-1.86 13.7-6.17 19.4-1.57 1.72-1.57 1.72-1.37 3.83-0.87 0.44-0.87 0.44-1.75 0.88-1.4 0.7-2.79 1.4-4.18 2.12-8.09 4.16-15.7 6.97-24.8 4.17-2.47-0.98-4.89-2.05-7.31-3.17-0.9-0.34-1.8-0.68-2.73-1.03-2.89-1.24-3.03-2.12-4.27-4.97-0.81-1.13-1.65-2.26-2.5-3.37-6.33-8.79-5.64-19.8-5.63-30.2v-3.43c-0.01-3.78-0.01-7.55-0.01-11.3 0-2.71 0-5.43-0.01-8.14-0.01-5.84-0.01-11.7-0.01-17.5-0.01-9.24-0.03-18.5-0.05-27.7 0-3.16-0.01-6.33-0.02-9.49v-2.39c-0.02-8.99-0.03-18-0.05-27v-2.49c-0.03-13.3-0.04-26.6-0.04-39.9-0.01-13.7-0.03-27.4-0.07-41-0.02-8.43-0.03-16.8-0.03-25.3 0.01-5.78-0.01-11.6-0.03-17.3-0.01-3.33-0.01-6.65-0.01-9.98 0.01-3.62 0-7.23-0.02-10.8 0-1.04 0.01-2.08 0.02-3.16-0.11-10.1-3.13-18.2-10.2-25.4-8.07-6.96-16.2-9.14-26.6-8.49-9.01 1.06-14.6 4.31-20.8 10.9z" fill="#000100"/>
<path transform="translate(931 275)" d="m0 0c4.49 3.68 7.29 7.21 9.8 12.4 0.36 0.7 0.72 1.41 1.09 2.14 1.29 4.01 1.2 7.77 1.18 12 0.01 0.92 0.01 1.84 0.02 2.79 0.01 3.08 0.01 6.16 0.01 9.24 0 2.21 0.01 4.42 0.02 6.63 0.01 6.01 0.02 12 0.02 18 0 3.75 0 7.5 0.01 11.2 0.02 12.4 0.03 24.8 0.03 37.3v2.03 2.03c-0.01 10.8 0.01 21.7 0.04 32.6 0.03 11.2 0.04 22.3 0.04 33.4 0 6.26 0.01 12.5 0.03 18.8 0.02 5.89 0.02 11.8 0 17.7 0 2.15 0.01 4.31 0.02 6.46 0.07 14.5-0.3 26.5-10.5 37.7-7.26 7.06-16.8 9.37-26.6 9.27-5.06-0.41-9-1.86-13.4-4.27-0.66-0.36-1.32-0.71-2-1.08-7.43-4.76-12.1-12.8-17-19.9-0.44-0.65-0.89-1.29-1.35-1.95-3.25-4.67-6.45-9.36-9.65-14-2.1-3.09-4.2-6.17-6.31-9.25-0.54-0.8-1.08-1.59-1.64-2.41-3.97-5.81-8-11.6-12-17.3-6.74-9.62-13.4-19.3-20-29-4.32-6.34-8.65-12.7-13-19-0.68-1-1.36-1.99-2.06-3.01-2.16-3.15-4.33-6.29-6.5-9.43-0.68-0.99-1.36-1.98-2.06-3-0.96-1.39-0.96-1.39-1.94-2.81-0.57-0.82-1.13-1.64-1.72-2.49-1.74-2.3-3.66-4.24-5.72-6.26 0.01 0.62 0.01 1.25 0.02 1.89 0.08 15.2 0.15 30.5 0.19 45.7 0.02 7.37 0.05 14.7 0.1 22.1 0.04 6.42 0.06 12.8 0.07 19.3 0.01 3.4 0.02 6.8 0.05 10.2 0.03 3.8 0.03 7.61 0.03 11.4 0.02 1.67 0.02 1.67 0.04 3.38-0.05 10.1-2.7 18-9.7 25.4-6.16 5.8-13.4 8.54-21.8 8.69-10-0.79-16.4-4.08-23.3-11.3-7.89-9.37-7.84-20.2-7.82-32 0-0.88 0-1.76-0.01-2.67v-8.74c0-2.1-0.01-4.2-0.01-6.31-0.01-5.68-0.01-11.4-0.01-17.1 0-3.56-0.01-7.12-0.01-10.7-0.01-12.4-0.01-24.8-0.01-37.3 0-11.6-0.01-23.1-0.03-34.7-0.01-9.95-0.01-19.9-0.01-29.8 0-5.94-0.01-11.9-0.02-17.8-0.01-5.58-0.01-11.2 0-16.7 0-2.04 0-4.08-0.01-6.12-0.08-29.9-0.08-29.9 9.99-40.7 7.29-6.55 14.4-8.53 24-8.42 8.34 0.71 15.7 3.94 21.2 10.3 3.52 4.54 6.77 9.25 10 14 1.02 1.47 2.03 2.95 3.04 4.43 1.62 2.36 3.24 4.73 4.85 7.1 4.1 6 8.25 12 12.4 17.9 4.25 6.06 8.43 12.2 12.5 18.3 3.53 5.25 7.19 10.4 10.8 15.6 5.95 8.48 11.8 17 17.7 25.6 6.31 9.22 12.7 18.4 19.1 27.5 0.57 0.81 1.14 1.63 1.72 2.46 0.76 1.08 0.76 1.08 1.54 2.18 1.13 1.63 2.24 3.28 3.33 4.93 0.01-0.6 0.01-1.2 0.02-1.82 0.1-14.6 0.21-29.2 0.32-43.8 0.06-7.07 0.11-14.1 0.16-21.2 0.05-6.83 0.1-13.6 0.16-20.5 0.02-2.6 0.04-5.2 0.05-7.79 0.03-3.65 0.06-7.3 0.09-11 0.01-1.06 0.01-2.13 0.02-3.23 0.12-12.9 0.75-23.2 9.93-33.1 11.5-10.7 27.8-11.1 40.4-2.05z" fill="#000100"/>
<path transform="translate(580 268)" d="m0 0c28.3-0.94 57.8 8.15 80.9 24.2 0.63 0.42 1.26 0.83 1.91 1.26 5.38 3.92 9.99 11.1 11.1 17.7 0.84 11-0.24 18.6-7.25 27.2-6.6 7.06-13.5 10.2-23.1 11.1-8.27-0.72-14.8-3.83-22-7.75-19.7-10.7-39.8-13.4-61.6-7.57-19.4 5.99-35.7 18.8-45.2 36.8-10.5 20.7-12.5 41.4-5.77 63.7 7.34 20.8 22.6 35.3 42 44.9 5.82 2.75 11.6 4.53 18 5.66 1.76 0.34 1.76 0.34 3.56 0.69 18.9 1.72 36.2-2.47 50.9-14.7 7.87-7.36 13.4-16.7 16.6-27v-4c-0.72 0.01-1.44 0.02-2.18 0.03-37.8 0.48-37.8 0.48-48.5-9.09-5.4-5.77-8.97-13.6-9.44-21.6 0.59-10.9 4.68-18.4 12.5-25.7 5.54-4.96 12.5-6.14 19.7-6.09 1.15-0.01 1.15-0.01 2.32-0.02 2.52-0.02 5.03-0.02 7.54-0.01 1.76-0.01 3.52-0.01 5.28-0.02 3.68-0.01 7.36 0 11 0.01 4.7 0.01 9.4-0.01 14.1-0.04 3.64-0.02 7.27-0.02 10.9-0.01 1.74 0 3.47-0.01 5.2-0.02 12.5-0.08 21.4 0.95 30.8 9.72 6.55 6.83 8.85 14.3 8.74 23.6-0.58 19.4-3.49 37.9-10 56.2-0.42 1.22-0.83 2.43-1.26 3.69-5.48 14.9-14.1 28.6-24.7 40.3-0.7 0.78-1.41 1.55-2.14 2.35-17.9 18.7-40.8 29-65.9 33.6-1.39 0.27-1.39 0.27-2.82 0.54-17.8 2.62-37.9 1.43-55.2-3.54-0.76-0.21-1.53-0.43-2.31-0.65-15.9-4.57-30.3-11.6-43.7-21.4-0.8-0.58-1.6-1.15-2.43-1.75-27.6-21-44.7-49.8-52.6-83.2-0.35-1.51-0.35-1.51-0.72-3.04-7.29-33.7 1.12-70.2 18.7-99.3 4.27-6.54 8.99-12.7 14-18.7 0.58-0.72 1.17-1.43 1.77-2.17 1.36-1.65 2.79-3.25 4.23-4.83h2v-2c3.47-3.23 7.26-6.08 11-9 1.3-1.01 1.3-1.01 2.62-2.05 24.3-18.4 51.4-26 81.4-28.2z" fill="#000100"/>
<path transform="translate(1076 276)" d="m0 0c6.74 6.5 10.1 14.2 10.6 23.5 0.05 2.85 0.02 5.69-0.01 8.54 0 1.59 0.01 3.17 0.02 4.75 0.01 3.38 0 6.76-0.02 10.1-0.03 5.36-0.02 10.7-0.01 16.1 0.02 8.47 0.01 17-0.01 25.4-0.04 15.2-0.04 30.3-0.01 45.5 0 5.32-0.01 10.6-0.03 16-0.01 3.32-0.01 6.63 0 9.94 0 1.53-0.01 3.06-0.02 4.58-0.08 11.3 0.51 21.4 8 30.3 6.98 6.65 15.9 12.1 25.4 14.2 0.99 0.23 1.98 0.45 3 0.69 15.3 1.59 28.4-2.86 40.9-11.8 6.37-5.4 10-10.5 11.1-18.9 0.09-2.24 0.13-4.48 0.13-6.72 0.01-0.65 0.01-1.3 0.01-1.97 0.01-2.17 0.01-4.34 0-6.5 0.01-1.56 0.01-3.12 0.01-4.68 0.01-3.35 0.02-6.71 0.02-10.1 0.01-5.31 0.02-10.6 0.04-15.9 0.01-1.82 0.02-3.64 0.02-5.46 0-0.91 0.01-1.82 0.01-2.76 0.04-12.4 0.08-24.7 0.09-37.1 0.01-8.34 0.03-16.7 0.07-25 0.02-4.41 0.03-8.82 0.02-13.2 0-4.15 0.01-8.3 0.04-12.4 0.01-1.52 0.01-3.03 0-4.55-0.05-12.5 1.71-23.2 10.5-32.6 5.7-5.48 13-7.83 20.8-8.1 9.24 0.53 16.6 3.76 23.4 10 5.76 6.65 7.91 14.1 7.93 22.7 0.01 0.66 0.01 1.32 0.01 2.01 0.01 2.21 0.01 4.42 0.01 6.64 0.01 1.59 0.01 3.18 0.02 4.77 0.01 4.31 0.02 8.63 0.02 13 0.01 2.71 0.01 5.41 0.01 8.12 0.02 8.47 0.03 17 0.03 25.4 0.01 9.75 0.02 19.5 0.05 29.3 0.02 7.56 0.03 15.1 0.04 22.7 0 4.51 0 9.01 0.02 13.5 0.02 4.25 0.02 8.5 0.01 12.8 0 1.55 0 3.09 0.01 4.64 0.16 25.3-6.29 46.9-22.4 66.7-0.74 0.99-1.48 1.98-2.25 3-16.3 19.1-45.1 32.5-69.8 35-1.27 0.13-2.53 0.27-3.84 0.4-30.2 2.71-57.5-6.54-80.8-25.7-19.7-16.7-32.6-38-34.9-63.9-0.59-7.39-0.62-14.8-0.61-22.2-0.01-1.51-0.01-3.03-0.01-4.54-0.01-4.08-0.01-8.15-0.01-12.2-0.01-2.55-0.01-5.1-0.01-7.66-0.01-8.92-0.01-17.8-0.01-26.8 0-8.3-0.01-16.6-0.03-24.9-0.01-7.14-0.02-14.3-0.02-21.4 0-4.26 0-8.51-0.01-12.8-0.01-4-0.01-8 0-12 0-1.46 0-2.92-0.01-4.39-0.05-12.4 0.43-22.8 9.33-32.1 12.9-12 29.1-12.7 43.1-1.83z" fill="#000100"/>
<path transform="translate(302,286)" d="m0 0c0.88 0.49 0.88 0.49 1.78 0.99 10.3 5.82 20.9 12.4 25.4 23.8 2.31 9.32 2.16 18.8-2.88 27.2-0.44 0.65-0.88 1.3-1.34 1.97-0.56 0.91-1.11 1.81-1.69 2.75-7.66 7.46-15.2 9.54-25.6 9.49-9.27-0.19-14.6-3.76-22.2-8.76-14.3-9.32-30.8-15.3-48-11.8-7.74 2.16-13 4.28-17.4 11.2-1.24 3.38-1.65 5.49-1.12 9.06 3.25 5.46 7.87 7.11 13.5 9.44 0.98 0.42 1.97 0.83 2.98 1.27 8.69 3.64 17.5 7 26.3 10.4 32.3 12.4 64.8 25.8 80 59.4 3.38 7.86 5.71 16 6.25 24.5 0.08 1.18 0.08 1.18 0.16 2.38 0.79 23.2-9.27 44.5-24.8 61.2-7.28 7.54-16.2 12.6-25.4 17.4-0.92 0.49-1.83 0.97-2.78 1.47-22.7 11.2-53 11.8-77.2 5.53-0.64-0.17-1.29-0.33-1.95-0.5-20.5-5.44-37.7-15-54-28.5-1.03-0.78-2.06-1.57-3.12-2.38-7.9-7.2-13.7-15.2-15.2-26-0.4-9.2 3.36-17.7 9.34-24.6 7.54-6.22 15.6-9.62 25.5-8.79 8.55 1.41 14.8 4.82 20.8 11.1 13 13.6 32.3 20.4 50.9 21.1 10.8-0.46 20.4-3.46 28.8-10.4 4.18-4.79 5.91-8.39 6.12-14.8-1.03-5.85-4.65-9.53-9.12-13.2-11.2-7.08-24.2-11.3-36.5-16.1-50.9-19.7-50.9-19.7-62.5-31.9-0.72-0.73-1.43-1.46-2.17-2.22-13-13.9-19.2-32.3-19-51.2 1.08-20.6 9.99-40.6 25-54.8 37.8-31.6 89.7-28.9 131-5.74z" fill="#000100"/>
<path transform="translate(1300 272)" d="m0 0c0.75-0.01 1.49-0.01 2.26-0.02 2.46-0.01 4.91-0.01 7.37-0.01 1.72 0 3.44 0 5.17-0.01 3.61-0.01 7.23-0.01 10.8 0 4.59 0 9.18-0.01 13.8-0.04 3.56-0.01 7.13-0.01 10.7-0.01 1.69 0 3.38 0 5.07-0.01 28.4-0.15 52.5 8.31 73.1 28.4 17.6 18.9 26.6 43.3 26 69-1.89 25.2-13.1 47.2-31.2 64.7-22.5 19.2-49.3 23.5-77.9 23.4-1.45 0-2.89-0.01-4.34-0.01-3.51-0.01-7.02-0.02-10.5-0.04 0.01 0.83 0.01 1.66 0.02 2.52 0.06 7.85 0.11 15.7 0.14 23.6 0.01 4.04 0.03 8.08 0.07 12.1 0.03 3.9 0.05 7.8 0.06 11.7 0 1.48 0.01 2.96 0.03 4.44 0.13 12.2-0.63 22.5-9.32 31.6-6.2 5.88-13.4 8.97-22 9.38-9.57-0.46-17.2-4.27-23.7-11.2-6.07-7.48-7.73-15.4-7.67-24.8 0-1.41 0-1.41-0.01-2.84-0.02-3.11-0.01-6.23 0-9.34-0.01-2.24-0.02-4.48-0.02-6.72-0.02-6.08-0.02-12.2-0.02-18.2 0.01-5.07 0-10.2 0-15.2-0.02-12.7-0.02-25.3 0-38 0.01-11-0.01-22-0.03-32.9-0.02-11.3-0.03-22.6-0.03-33.9 0.01-6.33 0-12.7-0.01-19-0.02-5.96-0.02-11.9 0-17.9 0.01-2.18 0-4.36-0.01-6.55-0.01-2.98 0-5.96 0.02-8.95-0.01-0.86-0.02-1.71-0.03-2.59 0.11-9.21 3.37-16.8 9.67-23.5 6.8-6.41 13.1-9.06 22.5-9.03zm30.3 62.3c-0.09 1.91-0.12 3.81-0.11 5.72v3.7c0 1.34 0.01 2.68 0.01 4.03 0.01 1.36 0.01 2.73 0.01 4.09 0 3.61 0.01 7.21 0.02 10.8 0.01 3.67 0.02 7.35 0.02 11 0.01 7.21 0.03 14.4 0.05 21.6 4.78 0.1 9.57 0.18 14.4 0.22 1.62 0.02 3.25 0.05 4.87 0.09 11.9 0.25 22.9 0.13 32.2-8.43 6.82-6.64 10.3-13.7 10.8-23.2-0.42-8.59-4.83-16.6-11-22.4-8.2-6.53-16.9-8.33-27.2-8.34h-1.99-4.11c-2.11 0.01-4.22 0-6.33 0h-4.01c-1.82 0-1.82 0-3.68 0.01-2.68-0.19-2.68-0.19-3.77 1.12z" fill="#000100"/>
<path transform="translate(413 276)" d="m0 0c5.31 4.91 9.4 11.4 9.88 18.8v2.1c0.01 0.81 0.01 1.62 0.02 2.45v2.67c0 0.94 0 1.88 0.01 2.84 0.01 3.16 0.01 6.32 0.02 9.47 0 2.26 0.01 4.52 0.02 6.78 0.02 7.43 0.03 14.9 0.04 22.3 0 2.56 0.01 5.12 0.01 7.68 0.02 10.6 0.03 21.3 0.04 31.9 0 2.76 0 5.52 0.01 8.28v2.08c0 11.1 0.03 22.2 0.06 33.3 0.04 11.4 0.05 22.8 0.06 34.2 0 6.4 0.01 12.8 0.03 19.2 0.03 6.02 0.03 12 0.02 18.1 0 2.2 0.01 4.41 0.02 6.62 0.02 3.02 0.01 6.04 0 9.07 0.01 0.86 0.02 1.73 0.03 2.62-0.09 9.15-3.23 16.9-9.55 23.6-6.67 5.94-14.1 8.29-23 8.75-8.46-0.49-14.5-3.91-20.8-9.43-10.7-12.2-9.69-26.8-9.64-42.1 0-2.18-0.01-4.35-0.01-6.52-0.02-5.87-0.01-11.7 0-17.6 0-6.16 0-12.3-0.01-18.5 0-10.3 0-20.7 0.02-31 0.02-11.9 0.01-23.9-0.01-35.8-0.01-10.3-0.01-20.5 0-30.8 0-6.12 0-12.2-0.01-18.4-0.01-5.75 0-11.5 0.02-17.3 0-2.11 0-4.21-0.01-6.32-0.04-15.2-0.03-27.6 11.1-39 4.04-3.76 8.06-5.76 13.3-7.28 1.18-0.37 1.18-0.37 2.37-0.75 9.84-0.93 18.2 1.77 25.9 7.94z" fill="#000100"/>
<path transform="translate(816 97.5)" d="m0 0c7.61 5.62 11.9 11.3 14.1 20.5 1.41 9.48-0.51 17.1-5.84 24.8-5.16 6.68-12.5 10.5-20.7 12.1-8.75 0.72-17.1-1.37-24-7-6.4-6.31-11-14-11.2-23.1 0.15-8.96 3.08-16.4 9.25-22.9 10.8-10 25.6-12.4 38.5-4.49z" fill="#000100"/>
</svg>
